<?xml version="1.0" standalone="no"?>
<!DOCTYPE svg PUBLIC "-//W3C//DTD SVG 20010904//EN"
 "http://www.w3.org/TR/2001/REC-SVG-20010904/DTD/svg10.dtd">
<svg version="1.0" xmlns="http://www.w3.org/2000/svg"
 width="48.000000pt" height="48.000000pt" viewBox="0 0 1024.000000 1024.000000"
 preserveAspectRatio="xMidYMid meet">

<g transform="translate(0.000000,1024.000000) scale(0.100000,-0.100000)"
fill="#000000" stroke="none">
<path d="M4745 9305 c-178 -19 -208 -23 -355 -51 -639 -120 -1241 -379 -1750
-753 -348 -256 -660 -561 -891 -871 -367 -492 -611 -1014 -745 -1590 -24 -105
-75 -425 -89 -565 -12 -124 -14 -638 -2 -710 3 -16 8 -64 12 -105 12 -138 65
-440 101 -583 149 -594 396 -1085 804 -1597 526 -659 1270 -1157 2097 -1404
430 -128 896 -194 1278 -181 235 8 455 29 615 60 468 90 732 174 1115 353 597
280 1113 686 1522 1197 421 526 691 1109 822 1775 150 766 85 1571 -185 2290
-139 371 -352 758 -593 1075 -330 436 -781 835 -1241 1098 -442 253 -949 439
-1407 516 -263 45 -363 53 -678 56 -210 2 -349 -1 -430 -10z m845 -559 c406
-58 752 -168 1145 -361 410 -202 686 -394 986 -687 609 -596 997 -1406 1080
-2258 13 -139 13 -533 -1 -685 -52 -564 -262 -1172 -567 -1637 -133 -203 -317
-430 -489 -602 -515 -515 -1285 -908 -2021 -1030 -233 -39 -415 -50 -695 -42
-268 7 -343 14 -548 52 -709 129 -1395 479 -1894 964 -158 154 -302 314 -401
445 -414 551 -642 1127 -720 1820 -46 410 -18 823 86 1245 96 387 257 756 487
1115 63 97 224 314 286 384 349 395 674 646 1156 893 234 120 421 197 640 262
210 64 396 100 685 135 119 15 654 6 785 -13z"/>
<path d="M4526 7920 c-133 -216 -241 -559 -267 -853 -24 -268 25 -617 123
-887 48 -131 143 -333 174 -369 6 -7 234 162 234 173 0 6 -19 45 -41 86 -96
178 -165 400 -194 623 -27 210 -15 420 36 627 37 149 71 236 150 389 32 63 58
115 56 116 -37 27 -172 117 -198 133 l-36 22 -37 -60z"/>
<path d="M6488 7970 c-221 -40 -394 -167 -493 -360 -65 -128 -68 -146 -73
-467 l-4 -293 -54 0 -54 0 0 -85 0 -85 905 0 905 0 0 85 0 85 -65 0 -65 0 0
278 c0 315 -5 346 -71 479 -77 154 -225 282 -386 336 -75 25 -97 27 -290 31
-114 3 -229 1 -255 -4z m513 -277 c76 -38 162 -117 202 -185 50 -85 57 -139
57 -410 l0 -248 -551 0 -550 0 3 283 3 283 33 67 c37 75 108 152 177 193 85
49 113 54 345 51 l216 -2 65 -32z"/>
<path d="M6392 7468 c-10 -12 -73 -217 -93 -303 -5 -22 -12 -48 -15 -57 -5
-16 22 -18 420 -20 383 -3 426 -1 426 13 0 17 -97 356 -106 370 -3 5 -144 9
-313 9 -235 0 -311 -3 -319 -12z"/>
<path d="M5254 7704 c-53 -96 -112 -251 -145 -384 -89 -356 -51 -744 101
-1055 27 -55 53 -106 58 -113 7 -11 24 -4 78 30 38 25 103 64 144 88 41 24
105 63 142 86 l67 43 -39 78 c-150 300 -147 641 10 952 22 44 40 83 40 85 0 3
-89 57 -197 122 -109 64 -203 121 -210 126 -8 6 -23 -11 -49 -58z"/>
<path d="M3056 7665 c-131 -46 -189 -185 -131 -309 58 -121 203 -167 323 -102
138 76 159 247 45 361 -63 64 -149 82 -237 50z m109 -85 c23 -25 13 -48 -27
-65 -18 -7 -47 -29 -65 -49 -36 -42 -45 -44 -74 -15 -14 14 -18 27 -13 42 25
86 133 138 179 87z"/>
<path d="M3793 7153 l-123 -87 0 -225 1 -226 102 -46 c160 -73 143 -80 150 68
9 176 9 603 0 603 -5 -1 -63 -40 -130 -87z"/>
<path d="M2370 6725 l0 -404 165 105 c90 57 169 104 175 104 9 0 14 114 15
343 0 75 -3 90 -18 98 -10 6 -89 43 -177 84 l-160 74 0 -404z"/>
<path d="M3025 7096 c-8 -39 -12 -72 -21 -168 -4 -50 -11 -78 -19 -78 -6 0
-46 18 -88 40 l-77 41 0 -165 0 -165 219 147 c121 81 222 152 225 159 4 10
-21 214 -28 220 -1 1 -20 -2 -43 -7 -24 -6 -67 -6 -102 -2 l-61 9 -5 -31z"/>
<path d="M3439 6875 c-19 -13 -86 -59 -149 -102 -63 -42 -156 -106 -207 -142
-99 -70 -94 -61 -107 -181 -3 -25 -12 -101 -20 -170 -9 -69 -18 -144 -21 -167
l-5 -43 211 0 211 0 -6 28 c-3 15 -14 101 -26 192 -11 91 -24 191 -29 222 -6
47 -5 60 8 72 30 26 156 112 174 119 14 5 17 20 17 102 0 52 -4 95 -9 95 -4 0
-23 -11 -42 -25z"/>
<path d="M5920 6551 c0 -5 14 -51 31 -103 79 -241 257 -407 472 -439 l77 -11
-5 -52 c-3 -28 -8 -68 -10 -88 l-5 -38 226 0 227 0 -7 89 -7 90 35 5 c20 3 53
9 74 12 20 3 75 24 122 46 173 83 298 257 334 466 l6 32 -785 0 c-465 0 -785
-4 -785 -9z m671 -116 c53 -34 65 -115 23 -164 -64 -76 -186 -29 -188 73 -2
87 91 138 165 91z m324 11 c39 -17 65 -60 65 -109 0 -72 -76 -121 -143 -93
-83 34 -88 150 -8 199 32 20 43 21 86 3z"/>
<path d="M8071 5969 c-5 -13 -48 -118 -96 -234 -141 -343 -186 -457 -182 -461
2 -3 133 -3 290 -2 l286 3 -75 185 c-41 102 -104 261 -140 355 -36 93 -67 171
-69 174 -3 2 -9 -7 -14 -20z"/>
<path d="M2515 5877 c-38 -29 -117 -89 -175 -133 -58 -44 -126 -94 -152 -112
l-47 -32 -219 0 -220 0 -13 -132 c-16 -167 -17 -492 0 -668 15 -162 40 -332
51 -343 4 -5 135 69 291 164 491 297 646 389 658 389 14 0 301 -143 301 -150
-1 -7 -233 -153 -470 -295 -52 -32 -124 -76 -160 -98 -82 -51 -139 -86 -368
-227 -174 -107 -183 -114 -177 -139 10 -44 96 -260 105 -266 5 -3 85 41 177
98 93 57 278 172 413 254 135 83 283 174 330 203 145 90 310 190 449 272 l135
79 48 -31 c58 -36 123 -76 201 -121 31 -18 57 -36 56 -39 0 -3 -46 -32 -102
-66 -112 -67 -487 -295 -837 -509 -124 -76 -304 -186 -400 -245 -96 -58 -209
-127 -250 -152 -42 -26 -74 -53 -74 -61 2 -18 81 -152 132 -223 l37 -52 115
71 c134 82 665 403 1204 729 346 208 381 227 400 215 12 -7 64 -40 116 -72 52
-32 115 -71 139 -85 l43 -28 -88 -54 c-49 -30 -136 -83 -194 -118 -58 -35
-186 -113 -285 -173 -99 -60 -223 -135 -275 -167 -52 -31 -268 -162 -480 -290
-212 -128 -411 -248 -442 -267 -32 -19 -58 -37 -58 -40 0 -8 96 -123 162 -195
l53 -58 525 315 c289 173 601 361 694 417 93 57 193 117 221 133 89 51 446
265 527 316 l77 48 168 -100 c92 -55 169 -103 170 -107 1 -4 -59 -44 -135 -89
-75 -45 -216 -128 -312 -186 -266 -158 -1001 -596 -1220 -727 -107 -64 -250
-149 -318 -189 -104 -62 -121 -76 -110 -88 18 -22 121 -100 231 -175 l98 -66
47 28 c26 15 103 61 172 101 69 40 267 157 440 259 173 103 371 219 440 260
69 40 157 92 195 115 39 23 135 80 215 127 80 47 183 108 230 136 313 186 507
296 520 296 8 0 88 -49 178 -108 l163 -108 -58 -37 c-70 -45 -233 -142 -623
-371 -162 -96 -371 -219 -465 -275 -93 -56 -249 -148 -345 -205 -455 -268
-700 -419 -700 -432 0 -13 119 -69 243 -114 150 -56 358 -116 515 -148 l123
-26 52 26 c69 35 449 255 982 569 77 45 163 95 190 110 64 37 443 258 487 285
18 11 39 20 47 20 14 0 332 -190 358 -214 15 -14 53 9 -787 -484 -475 -278
-580 -342 -580 -350 0 -19 509 51 669 93 124 32 378 118 491 167 108 46 417
202 464 233 11 8 78 52 147 98 186 123 329 242 571 474 l88 83 -38 34 c-69 62
-107 92 -207 168 -55 42 -140 110 -190 150 -132 108 -702 555 -1060 832 -126
98 -295 229 -375 291 -80 63 -285 223 -456 357 -398 311 -658 520 -859 692
l-160 136 -137 0 -138 0 -143 138 c-78 76 -183 177 -234 225 l-92 87 -528 0
-528 -1 -70 -52z m1140 -394 c1 -10 6 -47 10 -83 4 -36 16 -107 26 -159 10
-51 19 -99 19 -106 0 -9 -18 -16 -47 -20 -40 -6 -127 -23 -265 -52 -26 -5 -28
-3 -28 24 0 16 -13 99 -30 184 -16 85 -30 157 -30 160 0 3 26 9 58 13 31 3
107 18 167 34 61 15 111 27 113 26 2 -1 5 -10 7 -21z m-650 -158 c55 -54 15
-165 -60 -165 -28 0 -67 25 -81 51 -22 43 -17 77 15 110 38 38 91 40 126 4z
m1294 -109 c33 -35 38 -94 11 -128 -17 -22 -30 -28 -61 -28 -55 0 -89 34 -89
89 0 75 90 119 139 67z m-354 -278 c49 -58 15 -139 -60 -141 -68 -2 -104 67
-70 133 17 32 27 38 72 39 23 1 38 -7 58 -31z m535 -163 c85 -36 156 -68 158
-70 2 -1 -17 -47 -41 -101 -24 -55 -59 -139 -77 -189 -19 -49 -35 -91 -36 -93
-6 -8 -344 133 -344 144 0 7 30 81 66 166 36 84 72 168 80 187 8 19 19 31 26
28 7 -3 83 -35 168 -72z m749 -417 c6 -73 14 -159 18 -190 l6 -58 -74 0 c-41
0 -114 -5 -163 -11 -104 -13 -105 -12 -106 71 -1 30 -7 107 -14 170 -7 63 -13
116 -12 116 0 1 71 8 156 16 85 8 160 16 166 17 7 0 15 -49 23 -131z m460
-406 c25 -21 79 -64 119 -95 42 -33 68 -58 61 -62 -6 -4 -38 -44 -71 -89 -33
-44 -63 -80 -67 -78 -21 9 -231 178 -231 185 0 6 19 33 43 61 24 28 53 66 66
84 12 17 25 32 29 32 3 0 26 -17 51 -38z m501 -247 c36 -19 50 -43 50 -87 -1
-45 -28 -77 -72 -84 -32 -6 -41 -2 -68 24 -36 37 -39 77 -9 116 18 22 45 41
67 45 2 1 16 -6 32 -14z m458 -467 c67 -29 122 -57 122 -63 0 -5 -11 -32 -23
-60 -13 -27 -36 -87 -51 -132 -15 -46 -31 -83 -34 -83 -7 0 -253 91 -261 96
-5 4 113 294 119 294 3 0 60 -23 128 -52z m-469 16 c64 -82 -31 -187 -112
-124 -44 34 -43 82 1 133 24 28 86 23 111 -9z m983 -296 c34 -29 77 -67 97
-85 l36 -31 -60 -64 c-33 -34 -74 -79 -90 -100 l-30 -36 -97 91 -98 92 83 92
c45 51 86 92 90 93 5 0 36 -24 69 -52z m-1357 -82 c70 -30 83 -120 24 -170
-93 -78 -212 49 -134 143 14 16 36 32 48 34 12 2 23 5 25 6 1 0 18 -5 37 -13z"/>
<path d="M5153 5832 c-6 -15 -57 -133 -113 -262 -56 -129 -108 -250 -115 -267
l-14 -33 254 0 255 0 -20 48 c-73 178 -223 528 -229 534 -3 4 -12 -5 -18 -20z"/>
<path d="M6066 5682 c-2 -4 -10 -44 -17 -90 l-12 -82 -104 0 -104 0 -54 -112
c-30 -62 -55 -116 -55 -120 0 -5 437 -8 970 -8 534 0 970 2 970 4 0 5 -66 157
-90 209 -13 27 -15 27 -106 27 -104 0 -91 -13 -115 112 l-12 67 -634 0 c-348
-1 -635 -4 -637 -7z"/>
<path d="M5230 5066 c0 -6 259 -209 575 -452 583 -449 1945 -1519 2026 -1591
l37 -33 54 73 c159 213 329 519 425 762 128 324 217 742 238 1128 l7 117
-1681 0 c-925 0 -1681 -2 -1681 -4z"/>
</g>
</svg>
