<?xml version="1.0" encoding="utf-8"?>
<!-- Generator: Adobe Illustrator 24.1.0, SVG Export Plug-In . SVG Version: 6.00 Build 0)  -->



<svg version="1.1" id="Layer_1" width="176" height="41.2" xmlns="http://www.w3.org/2000/svg" xmlns:xlink="http://www.w3.org/1999/xlink" x="0px" y="0px"
	 viewBox="0 0 294.5 55.5" style="enable-background:new 0 0 294.5 55.5;" xml:space="preserve">
<style type="text/css">
	.st0{fill:#5E5F62;}
	.st1{opacity:0.5;fill:#F58426;enable-background:new    ;}
	.st2{fill:#F58426;}
</style>
<g>
	<path class="st0" d="M94.8,24.1h-5.2l-3.3-6.6c-0.2-0.4-0.3-0.9-0.4-1.3l0,0c-0.1,0.5-0.3,0.9-0.4,1.4l-3.3,6.5h-5.2l6.2-10L77.4,4
		h5.3l2.8,6c0.2,0.5,0.4,1.1,0.6,1.7l0,0c0.1-0.4,0.3-1,0.6-1.8l3.1-6h4.9l-5.8,10L94.8,24.1z"/>
	<path class="st0" d="M96.2,23.3v-4.5c0.7,0.7,1.6,1.2,2.6,1.5c0.9,0.3,1.8,0.5,2.8,0.5c0.5,0,1,0,1.4-0.1c0.4-0.1,0.7-0.2,1-0.4
		c0.3-0.2,0.5-0.4,0.6-0.6c0.1-0.2,0.2-0.5,0.2-0.8c0-0.4-0.1-0.7-0.3-1c-0.2-0.3-0.5-0.6-0.9-0.9c-0.4-0.3-0.9-0.5-1.3-0.8
		c-0.5-0.2-1.1-0.5-1.7-0.7c-1.3-0.5-2.5-1.3-3.4-2.4c-0.8-1-1.2-2.2-1.1-3.4c0-0.9,0.2-1.8,0.6-2.7c0.4-0.8,1-1.4,1.7-1.9
		c0.7-0.5,1.6-0.9,2.4-1.1c1-0.2,1.9-0.3,2.9-0.3c0.9,0,1.8,0.1,2.7,0.2c0.7,0.1,1.5,0.3,2.2,0.6v4.2c-0.3-0.2-0.7-0.5-1.1-0.6
		c-0.4-0.2-0.8-0.3-1.2-0.4c-0.4-0.1-0.8-0.2-1.2-0.2c-0.4,0-0.7-0.1-1.1-0.1c-0.5,0-0.9,0-1.3,0.2c-0.4,0.1-0.7,0.2-1,0.4
		c-0.3,0.2-0.5,0.4-0.6,0.6c-0.2,0.2-0.2,0.5-0.2,0.8c0,0.3,0.1,0.6,0.2,0.9c0.2,0.3,0.4,0.5,0.7,0.8c0.4,0.3,0.7,0.5,1.2,0.7
		c0.4,0.2,1,0.5,1.5,0.7c0.7,0.3,1.4,0.7,2.1,1.1c0.6,0.4,1.1,0.8,1.6,1.3c0.4,0.5,0.8,1,1,1.6c0.2,0.7,0.4,1.4,0.3,2.1
		c0,1-0.2,2-0.6,2.8c-0.4,0.7-1,1.4-1.7,1.9c-0.7,0.5-1.6,0.8-2.4,1c-1,0.2-2,0.3-2.9,0.3c-1,0-2-0.1-3-0.3
		C97.9,24,97,23.8,96.2,23.3z"/>
	<path class="st0" d="M125.7,30.7h-4.3v-8.6l0,0c-0.9,1.5-2.5,2.4-4.2,2.3c-1.6,0.1-3.2-0.6-4.2-1.9c-1.1-1.5-1.7-3.4-1.6-5.3
		c-0.1-2.1,0.5-4.1,1.7-5.7c1.1-1.4,2.8-2.2,4.5-2.1c1.5-0.1,3,0.7,3.8,2l0,0V9.8h4.3L125.7,30.7z M121.5,17.3v-1.1
		c0-0.9-0.2-1.7-0.8-2.4c-0.5-0.6-1.2-1-2-0.9c-0.9,0-1.7,0.4-2.2,1.2c-0.6,1-0.9,2.1-0.8,3.2c-0.1,1,0.2,2,0.8,2.9
		c0.5,0.6,1.2,1,2,1c0.8,0,1.6-0.3,2.2-1C121.2,19.3,121.5,18.3,121.5,17.3z"/>
	<path class="st0" d="M142.4,24.1h-4.2v-2.2h-0.1c-0.8,1.6-2.5,2.5-4.2,2.5c-3.2,0-4.8-2-4.8-6V9.8h4.2V18c0,2,0.8,3,2.3,3
		c0.7,0,1.4-0.3,1.8-0.8c0.5-0.7,0.7-1.5,0.7-2.3V9.8h4.2V24.1z"/>
	<path class="st0" d="M157.5,24.1h-4v-2.1h-0.1c-0.8,1.5-2.4,2.5-4.1,2.4c-1.2,0.1-2.3-0.4-3.2-1.2c-0.8-0.9-1.2-2-1.1-3.2
		c0-2.8,1.6-4.4,4.8-4.8l3.7-0.5c0-1.6-0.8-2.4-2.4-2.4c-1.7,0-3.4,0.6-4.7,1.6v-3.4c0.8-0.4,1.6-0.7,2.4-0.8
		c0.9-0.2,1.9-0.4,2.8-0.4c3.9,0,5.9,2,5.9,6.1L157.5,24.1z M153.5,18.3v-1l-2.5,0.3c-1.4,0.2-2.1,0.8-2.1,2c0,0.5,0.2,0.9,0.5,1.2
		c0.4,0.3,0.9,0.5,1.4,0.5c0.7,0,1.5-0.3,1.9-0.9C153.2,19.8,153.5,19.1,153.5,18.3L153.5,18.3z"/>
	<path class="st0" d="M169.8,13.8c-0.6-0.3-1.2-0.4-1.8-0.4c-0.9,0-1.7,0.4-2.2,1.1c-0.6,0.9-0.8,1.9-0.8,2.9v6.9h-4.3V9.8h4.3v2.7
		l0,0c0.7-1.9,1.9-2.9,3.6-2.9c0.4,0,0.7,0,1.1,0.2L169.8,13.8z"/>
	<path class="st0" d="M184.1,18.2h-9c0.1,2.1,1.4,3.1,3.8,3.1c1.4,0,2.8-0.4,4-1.1v3.2c-1.5,0.8-3.3,1.1-5,1.1
		c-1.9,0.1-3.8-0.6-5.2-1.9c-1.3-1.5-2-3.4-1.8-5.4c-0.1-2.1,0.6-4.1,2-5.7c1.3-1.4,3.1-2.1,4.9-2.1c1.8-0.1,3.5,0.6,4.7,1.9
		c1.2,1.4,1.8,3.2,1.6,5.1L184.1,18.2z M180.1,15.5c0-2.1-0.8-3.1-2.4-3.1c-0.7,0-1.3,0.3-1.8,0.9c-0.5,0.6-0.8,1.4-0.9,2.2H180.1z"
		/>
	<path class="st0" d="M92.9,51.9c-1.7,0.8-3.6,1.2-5.5,1.1c-2.6,0.1-5.2-0.9-7-2.7c-1.8-2-2.7-4.6-2.5-7.3c-0.1-2.9,0.9-5.7,2.9-7.8
		c1.9-2,4.6-3.1,7.4-3c1.6,0,3.2,0.2,4.8,0.7v4.4c-1.3-0.8-2.9-1.2-4.4-1.2c-1.7-0.1-3.3,0.6-4.4,1.8c-1.2,1.3-1.8,3.1-1.7,4.8
		c-0.1,1.7,0.5,3.4,1.6,4.7c1.1,1.2,2.6,1.8,4.2,1.7c1.6,0,3.3-0.4,4.7-1.3L92.9,51.9z"/>
	<path class="st0" d="M102.4,53c-2,0.1-4-0.6-5.4-2c-1.4-1.5-2.1-3.4-2-5.5c-0.1-2.1,0.6-4.1,2-5.6c1.5-1.4,3.5-2.1,5.5-2
		c2-0.1,4,0.6,5.5,2c1.4,1.4,2.1,3.3,2,5.3c0.1,2.1-0.6,4.1-2,5.7C106.5,52.4,104.5,53.1,102.4,53z M102.5,41.3
		c-0.9,0-1.8,0.4-2.3,1.1c-0.6,0.9-0.9,2-0.8,3.1c0,2.8,1.1,4.1,3.2,4.1s3.2-1.4,3.1-4.2C105.6,42.7,104.6,41.3,102.5,41.3z"/>
	<path class="st0" d="M134.6,52.6h-4.2v-8.2c0-2.1-0.7-3.1-2.2-3.1c-0.7,0-1.3,0.3-1.7,0.9c-0.5,0.7-0.7,1.5-0.7,2.3v8h-4.3v-8.2
		c0-2-0.7-3-2.2-3c-0.7,0-1.4,0.3-1.7,0.9c-0.5,0.7-0.7,1.6-0.7,2.4v8h-4.3V38.3h4.3v2.2l0,0c0.4-0.8,1.1-1.4,1.8-1.9
		c0.8-0.5,1.7-0.7,2.6-0.7c1.8-0.1,3.4,1,4,2.7c0.9-1.7,2.7-2.7,4.6-2.7c3,0,4.5,1.9,4.5,5.8L134.6,52.6z"/>
	<path class="st0" d="M159.9,52.6h-4.2v-8.2c0-2.1-0.7-3.1-2.2-3.1c-0.7,0-1.3,0.3-1.7,0.9c-0.5,0.7-0.7,1.5-0.7,2.3v8h-4.3v-8.2
		c0-2-0.7-3-2.2-3c-0.7,0-1.4,0.3-1.7,0.9c-0.5,0.7-0.7,1.6-0.7,2.4v8H138V38.3h4.3v2.2h0.1c0.4-0.8,1.1-1.4,1.9-1.9
		c0.8-0.5,1.7-0.7,2.6-0.7c1.8-0.1,3.4,1,4,2.7c0.9-1.7,2.7-2.7,4.6-2.7c3,0,4.5,1.9,4.5,5.8L159.9,52.6z"/>
	<path class="st0" d="M176.4,52.6h-4.2v-2.2h-0.1c-0.8,1.6-2.5,2.5-4.2,2.5c-3.2,0-4.8-2-4.8-6v-8.7h4.2v8.3c0,2,0.8,3,2.3,3
		c0.7,0,1.4-0.3,1.8-0.8c0.5-0.6,0.7-1.4,0.7-2.3v-8.2h4.2L176.4,52.6z"/>
	<path class="st0" d="M193.3,52.6h-4.2v-8c0-2.2-0.8-3.3-2.3-3.3c-0.7,0-1.4,0.3-1.8,0.9c-0.5,0.6-0.8,1.4-0.7,2.2v8.2H180V38.3h4.3
		v2.3h0.1c0.9-1.6,2.6-2.7,4.4-2.6c3.1,0,4.6,2,4.6,5.9L193.3,52.6z"/>
	<path class="st0" d="M198.9,36c-0.7,0-1.3-0.2-1.8-0.7c-0.5-0.4-0.7-1-0.7-1.6c0-0.6,0.2-1.2,0.7-1.6c0.5-0.4,1.1-0.7,1.8-0.6
		c0.7,0,1.3,0.2,1.8,0.6c0.5,0.4,0.7,1,0.7,1.6c0,0.6-0.2,1.2-0.7,1.7C200.2,35.8,199.5,36,198.9,36z M201,52.6h-4.3V38.3h4.3V52.6z
		"/>
	<path class="st0" d="M215,52.1c-1.3,0.7-2.7,1-4.2,0.9c-1.9,0.1-3.8-0.6-5.1-2c-1.3-1.4-2.1-3.3-2-5.2c-0.1-2.1,0.6-4.2,2.1-5.8
		c1.5-1.4,3.6-2.2,5.6-2.1c1.2-0.1,2.4,0.1,3.5,0.7v3.8c-0.9-0.7-1.9-1-3-1c-1.1-0.1-2.1,0.3-2.9,1.1c-0.8,0.8-1.1,2-1.1,3.1
		c-0.1,1.1,0.3,2.2,1,3c0.7,0.8,1.8,1.2,2.8,1.1c1.1,0,2.2-0.4,3.1-1L215,52.1z"/>
	<path class="st0" d="M229.3,52.6h-4v-2.1l0,0c-0.8,1.6-2.4,2.5-4.2,2.4c-1.2,0.1-2.3-0.4-3.2-1.2c-0.8-0.9-1.2-2-1.1-3.2
		c0-2.8,1.6-4.4,4.8-4.8l3.8-0.5c0-1.6-0.8-2.3-2.5-2.3c-1.7,0-3.3,0.5-4.7,1.5v-3.3c0.8-0.4,1.6-0.7,2.4-0.8
		c0.9-0.2,1.9-0.4,2.8-0.4c3.9,0,5.9,2,5.9,6.1L229.3,52.6z M225.3,46.8v-1l-2.5,0.3c-1.4,0.2-2.1,0.8-2.1,2c0,0.5,0.2,0.9,0.5,1.2
		c0.4,0.3,0.9,0.5,1.4,0.5c0.7,0,1.5-0.3,1.9-0.9C225.1,48.4,225.3,47.6,225.3,46.8z"/>
	<path class="st0" d="M241,52.5c-0.9,0.4-1.9,0.6-2.9,0.5c-3,0-4.5-1.6-4.5-4.9v-6.6h-2.2v-3.3h2.2v-3.1l4.2-1.3v4.4h3.1v3.3h-3.1
		v5.8c0,1.5,0.6,2.2,1.7,2.2c0.5,0,1-0.2,1.4-0.4V52.5z"/>
	<path class="st0" d="M245.6,36c-0.7,0-1.3-0.2-1.8-0.7c-0.5-0.4-0.7-1-0.7-1.6c0-0.6,0.2-1.2,0.7-1.6c0.5-0.4,1.1-0.7,1.8-0.6
		c0.7,0,1.3,0.2,1.8,0.6c0.5,0.4,0.7,1,0.7,1.6c0,0.6-0.2,1.2-0.7,1.7C246.9,35.8,246.2,36,245.6,36z M247.7,52.6h-4.3V38.3h4.3
		V52.6z"/>
	<path class="st0" d="M257.8,53c-2,0.1-4-0.6-5.4-2c-1.4-1.5-2.1-3.4-2-5.5c-0.1-2.1,0.6-4.1,2-5.6c1.5-1.4,3.5-2.1,5.5-2
		c2-0.1,4,0.6,5.4,2c1.4,1.4,2.1,3.3,2,5.3c0.1,2.1-0.6,4.1-2,5.7C261.9,52.4,259.9,53.1,257.8,53z M257.9,41.3
		c-0.9,0-1.8,0.4-2.4,1.1c-0.6,0.9-0.9,2-0.8,3.1c0,2.8,1.1,4.1,3.2,4.1c2,0,3.1-1.4,3.1-4.2C261,42.7,260,41.3,257.9,41.3
		L257.9,41.3z"/>
	<path class="st0" d="M281.5,52.6h-4.2v-8c0-2.2-0.8-3.3-2.3-3.3c-0.7,0-1.4,0.3-1.8,0.9c-0.5,0.6-0.8,1.4-0.7,2.2v8.2h-4.3V38.3
		h4.3v2.3h0.1c0.9-1.6,2.6-2.7,4.4-2.6c3.1,0,4.6,2,4.6,5.9L281.5,52.6z"/>
	<path class="st0" d="M283.9,52.3v-3.6c0.7,0.4,1.4,0.8,2.1,1c0.6,0.2,1.3,0.3,2,0.3c0.6,0,1.2-0.1,1.8-0.3c0.4-0.2,0.7-0.6,0.7-1
		c0-0.3-0.1-0.5-0.3-0.7c-0.2-0.2-0.5-0.4-0.8-0.5c-0.3-0.1-0.7-0.3-1-0.4c-0.4-0.1-0.7-0.2-1.1-0.4c-0.5-0.2-1-0.4-1.5-0.7
		c-0.4-0.2-0.7-0.5-1-0.9c-0.3-0.3-0.5-0.7-0.6-1.1c-0.2-0.5-0.2-1-0.2-1.5c0-0.7,0.2-1.4,0.5-2.1c0.3-0.6,0.8-1.1,1.3-1.4
		c0.6-0.4,1.2-0.7,1.9-0.8c0.7-0.2,1.5-0.3,2.2-0.3c0.6,0,1.2,0.1,1.9,0.2c0.6,0.1,1.3,0.2,1.9,0.4v3.4c-0.5-0.3-1.1-0.6-1.7-0.7
		c-0.6-0.2-1.2-0.2-1.8-0.2c-0.3,0-0.5,0-0.8,0.1c-0.2,0-0.4,0.1-0.6,0.2c-0.2,0.1-0.3,0.2-0.5,0.4c-0.1,0.2-0.2,0.3-0.2,0.5
		c0,0.2,0.1,0.5,0.2,0.7c0.2,0.2,0.4,0.4,0.6,0.5c0.3,0.1,0.6,0.3,0.9,0.4l1,0.3c0.5,0.2,1,0.4,1.5,0.7c0.4,0.2,0.8,0.5,1.2,0.8
		c0.3,0.3,0.6,0.7,0.8,1.2c0.2,0.5,0.3,1,0.3,1.6c0,0.8-0.2,1.5-0.5,2.2c-0.3,0.6-0.8,1.1-1.4,1.5c-0.6,0.4-1.3,0.7-2,0.8
		c-0.8,0.2-1.6,0.3-2.4,0.3C286.8,53,285.3,52.8,283.9,52.3z"/>
</g>
<g>
	<polygon class="st1" points="48.1,49.1 49.6,51 70.4,51 68.9,49.1 	"/>
	<polygon class="st1" points="44.6,44.6 46.1,46.5 66.9,46.5 65.4,44.6 	"/>
	<polygon class="st1" points="51.5,28.7 53,28.7 52.3,27.7 	"/>
	<polygon class="st1" points="53.2,55.5 73.8,55.5 72.3,53.5 51.6,53.5 	"/>
	<polygon class="st1" points="49.5,31.2 48.1,33.2 56.5,33.2 55,31.2 	"/>
	<polygon class="st1" points="42.6,40.2 41.8,41.2 42.5,42.1 63.4,42.1 61.9,40.2 	"/>
	<polygon class="st1" points="46.1,35.7 44.6,37.6 60,37.6 58.5,35.7 	"/>
	<polygon class="st1" points="44.6,17.8 46.1,19.8 58.5,19.8 60,17.8 	"/>
	<polygon class="st1" points="53,26.8 51.5,26.8 52.3,27.7 	"/>
	<polygon class="st1" points="48,22.3 49.5,24.2 55,24.2 56.5,22.3 	"/>
	<polygon class="st1" points="51.6,1.9 72.3,1.9 73.8,0 53.2,0 	"/>
	<polygon class="st1" points="49.6,4.5 48.1,6.4 68.9,6.4 70.4,4.5 	"/>
	<polygon class="st1" points="42.5,13.4 41.8,14.3 42.6,15.3 61.9,15.3 63.4,13.4 	"/>
	<polygon class="st1" points="46.1,8.9 44.6,10.8 65.4,10.8 66.9,8.9 	"/>
</g>
<polygon class="st2" points="51.5,28.7 52.3,27.7 51.5,26.8 42.3,26.8 40.4,24.2 49.6,24.2 48.1,22.3 38.9,22.3 36.9,19.8 
	46.1,19.8 44.6,17.8 35.4,17.8 33.4,15.3 42.6,15.3 41.1,13.4 31.9,13.4 30,10.8 39.1,10.8 37.7,8.9 28.5,8.9 26.5,6.4 35.7,6.4 
	34.2,4.5 25,4.5 23,1.9 32.2,1.9 30.7,0 21.5,0 9.2,0 0,0 22,27.7 22,27.7 0,55.5 9.2,55.5 21.5,55.5 30.7,55.5 32.2,53.5 23,53.5 
	25,51 34.2,51 35.7,49.1 26.5,49.1 28.5,46.5 37.7,46.5 39.1,44.6 30,44.6 31.9,42.1 41.1,42.1 42.6,40.2 33.4,40.2 35.4,37.6 
	44.6,37.6 46.1,35.7 36.9,35.7 38.9,33.2 48.1,33.2 49.5,31.2 40.4,31.2 42.3,28.7 "/>
</svg>
