<?xml version="1.0" standalone="no"?>
<!DOCTYPE svg PUBLIC "-//W3C//DTD SVG 20010904//EN"
 "http://www.w3.org/TR/2001/REC-SVG-20010904/DTD/svg10.dtd">
<svg version="1.0" xmlns="http://www.w3.org/2000/svg"
 width="48.000000pt" height="48.000000pt" viewBox="0 0 224.000000 224.000000"
 preserveAspectRatio="xMidYMid meet">

<g transform="translate(0.000000,224.000000) scale(0.100000,-0.100000)"
fill="#000000" stroke="none">
<path d="M978 2000 c-303 -55 -569 -270 -683 -553 -98 -241 -85 -509 36 -735
118 -222 312 -381 554 -453 101 -30 294 -37 406 -15 154 31 305 108 421 215
209 193 310 435 295 704 -7 124 -27 206 -77 313 -115 249 -326 431 -582 504
-82 24 -290 35 -370 20z m274 -74 c391 -76 678 -416 678 -804 0 -206 -61 -373
-195 -531 -106 -125 -249 -217 -410 -263 -110 -31 -295 -31 -407 0 -272 74
-493 287 -578 557 -16 51 -24 105 -27 200 -7 159 13 252 81 390 161 325 523
515 858 451z"/>
<path d="M945 1861 c-137 -38 -232 -91 -342 -195 -260 -242 -312 -648 -123
-954 l21 -34 35 21 c32 19 51 21 219 21 153 0 184 2 189 15 4 13 -8 15 -74 15
-44 0 -80 1 -80 3 0 1 19 65 43 142 24 77 59 193 78 257 l34 118 168 0 c92 0
170 0 174 1 5 0 161 -497 163 -518 0 -2 -45 -3 -100 -3 -82 0 -100 -3 -100
-15 0 -13 30 -15 211 -15 198 0 213 -1 240 -21 22 -15 33 -18 43 -10 24 20 96
187 111 259 19 93 19 246 0 337 -18 83 -78 212 -133 287 -87 117 -236 226
-377 274 -108 37 -294 44 -400 15z m359 -124 c25 -25 30 -55 42 -243 l7 -101
-32 -24 c-17 -12 -31 -28 -31 -35 0 -14 -23 -24 -56 -24 -17 0 -24 6 -24 20 0
19 -7 20 -90 20 -83 0 -90 -1 -90 -20 0 -14 -7 -20 -24 -20 -33 0 -56 10 -56
24 0 7 -14 23 -31 35 l-32 23 8 115 c10 167 19 214 45 235 19 16 43 18 182 18
153 0 160 -1 182 -23z m-457 -284 c2 -6 -62 -63 -143 -127 -115 -90 -151 -113
-161 -104 -8 6 -12 14 -11 18 7 17 284 230 297 228 8 -2 16 -8 18 -15z m718
-94 c77 -61 141 -114 143 -118 1 -5 -4 -13 -11 -19 -11 -10 -44 12 -161 104
-80 63 -146 119 -146 123 0 11 12 21 24 21 6 0 74 -50 151 -111z m-708 5 c4
-13 -350 -347 -373 -352 -46 -10 6 53 166 203 163 153 197 178 207 149z m737
-153 c109 -102 176 -171 176 -183 0 -12 -6 -18 -15 -16 -13 3 -295 259 -354
321 -23 25 -21 51 4 45 7 -2 92 -77 189 -167z m-1086 -22 c4 -20 -84 -83 -104
-75 -21 8 -8 28 41 65 42 32 58 34 63 10z m1288 -11 c40 -29 59 -68 33 -68
-17 0 -99 62 -99 75 0 12 9 25 18 25 2 0 24 -14 48 -32z"/>
<path d="M980 1674 c-6 -14 -10 -45 -10 -70 l0 -44 150 0 150 0 0 44 c0 25 -4
56 -10 70 l-10 26 -130 0 -130 0 -10 -26z"/>
<path d="M962 1478 c-28 -28 -1 -75 37 -63 11 3 23 15 26 26 12 38 -35 65 -63
37z"/>
<path d="M1220 1475 c-26 -32 13 -81 48 -59 34 22 22 74 -18 74 -10 0 -23 -7
-30 -15z"/>
<path d="M1086 1194 c-9 -8 -16 -29 -16 -45 0 -60 91 -63 106 -4 13 50 -53 86
-90 49z"/>
<path d="M1090 1073 c-8 -3 -43 -23 -77 -45 -64 -41 -64 -41 -78 -134 -5 -31
-2 -44 10 -54 26 -22 49 0 60 60 6 29 16 55 23 58 11 3 12 -10 7 -64 l-7 -69
62 -72 c44 -51 67 -89 82 -135 25 -74 34 -88 60 -88 29 0 33 27 13 108 -15 57
-30 89 -66 136 l-47 61 10 68 c13 96 8 147 -17 162 -11 7 -27 10 -35 8z"/>
<path d="M1177 954 c-11 -64 -9 -69 38 -92 56 -27 82 -28 90 -2 9 28 1 37 -56
66 -28 13 -54 34 -58 46 -7 19 -9 16 -14 -18z"/>
<path d="M966 686 c-50 -113 -53 -127 -31 -146 26 -22 45 -2 91 96 l44 96 -22
28 c-13 16 -26 29 -29 29 -4 1 -27 -46 -53 -103z"/>
<path d="M734 682 c-45 -3 -58 -9 -104 -50 l-53 -47 47 -39 c26 -21 51 -35 55
-30 16 18 113 166 109 167 -1 1 -26 1 -54 -1z"/>
<path d="M1289 620 c14 -54 14 -64 1 -88 -9 -15 -29 -31 -47 -36 -31 -10 -31
-10 -26 -65 3 -31 8 -59 12 -63 6 -6 136 24 147 35 8 8 -80 270 -93 274 -6 2
-4 -21 6 -57z"/>
<path d="M1506 595 c32 -47 60 -85 63 -85 3 0 26 18 50 38 l44 38 -55 47 c-50
43 -60 47 -107 47 l-51 0 56 -85z"/>
<path d="M1015 537 c-26 -39 -55 -49 -90 -31 -15 8 -29 13 -30 12 -1 -2 -12
-28 -23 -59 l-21 -57 57 -15 c112 -31 105 -36 119 77 7 55 11 101 10 102 -1 1
-11 -12 -22 -29z"/>
</g>
</svg>
