<?xml version="1.0" standalone="no"?>
<!DOCTYPE svg PUBLIC "-//W3C//DTD SVG 20010904//EN"
 "http://www.w3.org/TR/2001/REC-SVG-20010904/DTD/svg10.dtd">
<svg version="1.0" xmlns="http://www.w3.org/2000/svg"
 width="48.000000pt" height="48.000000pt" viewBox="0 0 224.000000 224.000000"
 preserveAspectRatio="xMidYMid meet">

<g transform="translate(0.000000,224.000000) scale(0.100000,-0.100000)"
fill="#000000" stroke="none">
<path d="M845 2026 c-181 -47 -316 -127 -446 -264 -135 -142 -218 -314 -242
-501 -12 -100 -8 -118 28 -127 41 -10 61 16 69 92 4 36 18 102 32 147 70 223
215 393 419 492 83 41 226 85 274 85 20 0 51 34 51 57 0 22 -31 43 -63 43 -18
-1 -72 -11 -122 -24z"/>
<path d="M1156 2029 c-23 -33 0 -79 39 -79 71 0 238 -60 343 -123 l52 -31 0
-101 c0 -140 4 -145 119 -145 98 0 102 -2 141 -79 26 -52 70 -219 70 -266 0
-18 9 -43 19 -56 16 -20 23 -22 47 -13 29 10 29 10 27 89 -3 140 -77 343 -145
401 -25 20 -40 24 -99 24 l-69 0 0 79 c0 44 -4 91 -10 105 -20 53 -215 156
-369 195 -109 27 -146 27 -165 0z"/>
<path d="M1050 1940 c-24 -24 -25 -38 -4 -68 18 -27 55 -29 77 -4 22 24 21 55
-1 75 -25 22 -48 21 -72 -3z"/>
<path d="M1008 1799 c-188 -20 -357 -127 -424 -266 -33 -70 -43 -189 -24 -294
12 -68 11 -69 -14 -100 -24 -28 -26 -38 -26 -118 0 -99 16 -136 80 -179 28
-19 40 -39 67 -114 55 -154 118 -239 216 -289 96 -50 320 -46 419 8 92 50 174
171 215 316 12 43 23 61 42 72 82 42 121 151 91 254 -5 19 -19 44 -30 57 -20
20 -21 26 -10 82 7 34 11 103 8 155 -3 77 -9 103 -33 153 -88 181 -328 290
-577 263z m470 -271 c21 -29 32 -56 30 -70 -3 -21 -5 -21 -21 10 -19 34 -51
43 -61 16 -19 -51 14 -174 61 -226 12 -13 14 -29 9 -72 -8 -64 2 -91 39 -100
23 -6 25 -10 25 -70 0 -58 -3 -67 -26 -85 -15 -12 -33 -21 -40 -21 -20 0 -40
-36 -73 -133 -49 -144 -104 -221 -186 -258 -46 -21 -213 -26 -276 -9 -86 24
-166 132 -219 295 -25 76 -41 101 -74 111 -44 13 -56 34 -56 95 0 55 1 58 36
78 l37 22 -7 63 c-7 73 0 100 44 149 44 51 114 74 260 87 67 5 143 15 168 22
76 18 164 62 212 106 26 24 53 41 64 39 11 -1 35 -23 54 -49z"/>
<path d="M787 1142 c-22 -24 -21 -55 1 -75 27 -24 123 -23 145 1 23 25 22 69
-2 82 -34 18 -126 12 -144 -8z"/>
<path d="M1236 1144 c-21 -21 -20 -57 2 -77 27 -24 123 -23 145 1 10 10 17 28
17 40 0 37 -26 52 -90 52 -40 0 -64 -5 -74 -16z"/>
<path d="M1001 1071 c-6 -11 -11 -56 -11 -101 0 -59 -4 -86 -15 -96 -21 -21
-19 -50 5 -74 17 -17 33 -20 103 -20 96 0 127 14 127 59 0 16 -7 34 -15 41
-10 8 -15 38 -17 102 -2 72 -7 93 -20 101 -12 8 -21 7 -32 -2 -13 -11 -16 -34
-16 -112 0 -99 0 -99 -25 -99 -24 0 -24 1 -27 108 -3 101 -4 107 -25 110 -14
2 -26 -4 -32 -17z"/>
<path d="M962 688 c-18 -18 -15 -53 6 -71 28 -26 212 -24 235 1 20 22 22 53 5
70 -17 17 -229 17 -246 0z"/>
<path d="M271 1121 c-20 -13 -17 -62 5 -78 24 -18 85 -16 112 3 24 17 29 53
10 72 -14 14 -106 16 -127 3z"/>
<path d="M1770 1111 c-16 -30 -12 -48 12 -65 54 -38 148 -4 132 47 -10 31 -22
37 -81 37 -42 0 -54 -4 -63 -19z"/>
<path d="M1953 1029 c-12 -4 -25 -18 -27 -31 -3 -13 -10 -50 -17 -83 -29 -156
-121 -318 -241 -430 -119 -110 -248 -176 -410 -209 -41 -9 -82 -18 -91 -22
-33 -12 -25 -77 11 -88 21 -7 148 16 222 41 199 65 397 227 507 415 61 104
120 294 111 362 -4 36 -35 57 -65 45z"/>
<path d="M162 1018 c-7 -7 -12 -26 -12 -44 0 -57 49 -227 88 -304 50 -99 81
-120 173 -120 l69 0 0 -90 c0 -104 2 -106 100 -164 104 -61 205 -98 342 -126
63 -12 92 -4 103 30 12 37 -10 57 -77 69 -120 23 -264 79 -340 133 -27 19 -28
22 -28 117 0 126 -5 131 -118 131 -70 0 -85 3 -103 21 -32 32 -69 124 -94 236
-13 56 -26 107 -30 113 -9 14 -58 13 -73 -2z"/>
<path d="M1044 335 c-19 -29 -11 -60 18 -76 49 -26 100 40 63 81 -25 27 -61
25 -81 -5z"/>
</g>
</svg>
