<?xml version="1.0" standalone="no"?>
<!DOCTYPE svg PUBLIC "-//W3C//DTD SVG 20010904//EN"
 "http://www.w3.org/TR/2001/REC-SVG-20010904/DTD/svg10.dtd">
<svg version="1.0" xmlns="http://www.w3.org/2000/svg"
 width="48.000000pt" height="48.000000pt" viewBox="0 0 500.000000 500.000000"
 preserveAspectRatio="xMidYMid meet">

<g transform="translate(0.000000,500.000000) scale(0.100000,-0.100000)"
fill="#000000" stroke="none">
<path d="M2280 4864 c-386 -47 -702 -149 -993 -320 -354 -210 -606 -465 -812
-824 -67 -116 -91 -164 -145 -285 -13 -31 -87 -261 -110 -345 -64 -234 -88
-610 -56 -869 52 -404 223 -831 457 -1142 35 -46 120 -140 189 -209 369 -370
854 -606 1387 -675 170 -22 439 -23 606 0 247 32 516 110 702 203 115 57 272
148 315 181 24 19 24 19 5 41 -11 12 -32 31 -47 41 l-27 19 -85 -55 c-180
-117 -484 -241 -703 -285 -192 -38 -470 -50 -708 -29 -528 45 -1110 343 -1455
744 -242 282 -430 686 -491 1055 -66 401 -34 797 92 1158 203 578 584 1008
1119 1262 235 112 374 154 650 196 140 22 502 25 625 6 309 -49 456 -92 682
-202 383 -185 683 -456 912 -825 99 -159 213 -436 265 -642 83 -328 81 -799
-5 -1123 -31 -116 -106 -324 -141 -392 -11 -21 -17 -42 -13 -48 3 -5 26 -24
51 -40 l44 -31 39 83 c47 104 123 330 156 468 39 165 57 336 58 530 0 641
-250 1253 -692 1690 -355 351 -768 557 -1291 646 -91 15 -497 28 -580 18z"/>
<path d="M2310 4503 c-14 -2 -77 -10 -140 -19 -594 -81 -1108 -422 -1386 -919
-142 -252 -243 -584 -260 -849 l-7 -106 111 0 110 0 7 68 c20 203 53 360 110
520 23 65 35 115 35 150 0 70 35 242 63 307 40 95 92 175 174 269 130 150 320
265 513 311 100 24 271 29 360 12 69 -14 84 -14 190 3 63 11 145 22 183 25
l67 7 0 114 0 114 -52 -1 c-29 -1 -64 -3 -78 -6z"/>
<path d="M2550 4397 c0 -113 1 -117 23 -121 12 -2 78 -11 147 -20 68 -10 126
-19 128 -21 3 -2 -16 -26 -42 -53 l-46 -48 -78 12 c-87 15 -346 17 -377 4 -11
-5 -15 -9 -9 -9 19 -1 156 -96 212 -146 114 -103 229 -288 278 -450 26 -84 28
-102 28 -270 -1 -166 -3 -187 -27 -268 -29 -95 -60 -161 -114 -246 l-35 -54
41 -40 c39 -39 42 -41 113 -42 109 -3 139 -20 266 -150 l112 -113 72 -12 c125
-20 320 -60 337 -69 11 -7 5 -12 -28 -22 -45 -13 -154 -5 -335 27 l-79 14
-126 123 c-140 136 -170 153 -260 141 -45 -6 -53 -4 -85 23 -20 16 -52 48 -72
72 l-37 42 20 27 c36 49 92 157 119 227 86 230 72 503 -37 718 -65 128 -104
181 -202 273 -107 99 -248 178 -387 215 -118 32 -318 32 -435 0 -324 -87 -581
-344 -655 -655 -29 -121 -27 -138 18 -169 38 -25 39 -27 45 -99 8 -104 30
-178 87 -293 104 -213 318 -367 572 -411 201 -35 430 22 585 145 369 291 411
773 98 1119 -70 78 -206 163 -322 202 -87 30 -110 34 -208 34 -85 0 -128 -5
-189 -22 -78 -22 -212 -84 -270 -124 -65 -45 -157 -136 -209 -208 -11 -16 -9
-8 5 20 27 52 129 158 208 217 126 94 304 165 467 187 101 14 279 -30 393 -98
258 -151 420 -432 420 -726 0 -114 -16 -201 -59 -317 -34 -93 -43 -108 -122
-213 -91 -121 -177 -192 -312 -255 -222 -106 -495 -106 -724 0 -95 44 -226
131 -275 181 -95 100 -177 238 -223 372 l-21 63 -16 -58 c-32 -112 -57 -259
-68 -391 -24 -287 38 -647 154 -887 158 -330 354 -526 706 -708 156 -81 259
-118 425 -154 121 -25 146 -27 360 -27 224 0 234 0 365 31 74 18 169 46 211
62 85 33 215 96 222 108 3 5 -28 21 -68 36 -39 16 -89 42 -109 59 -36 29 -86
112 -86 142 0 9 -24 28 -52 42 -70 35 -213 181 -244 248 -12 28 -26 67 -29 87
-6 31 -11 37 -48 47 -121 33 -160 111 -121 241 l15 53 -65 68 c-36 37 -70 80
-76 96 -6 16 -10 61 -8 101 l2 73 -45 48 c-70 73 -72 77 -57 101 7 12 17 21
21 21 8 0 74 -69 131 -137 25 -29 26 -35 16 -78 -18 -80 -6 -111 77 -196 l74
-76 -16 -59 c-21 -82 -19 -136 5 -167 21 -27 73 -47 121 -47 28 0 39 -19 39
-70 0 -14 13 -52 29 -85 33 -70 150 -187 235 -235 44 -25 55 -37 60 -64 15
-77 94 -147 203 -179 29 -9 72 -27 96 -41 24 -14 69 -31 99 -37 41 -8 72 -24
119 -60 35 -27 99 -74 142 -104 42 -31 77 -58 77 -60 0 -3 -9 -22 -20 -42 -28
-53 -25 -74 18 -115 62 -60 295 -240 329 -254 47 -20 140 -17 190 5 60 28 126
93 187 185 77 115 113 194 141 299 33 127 39 186 25 251 -15 73 -44 113 -115
160 -33 22 -100 69 -150 106 -112 83 -131 93 -162 87 -54 -10 -129 52 -213
178 -19 28 -53 74 -77 103 -28 35 -43 64 -43 82 0 41 13 44 46 9 l28 -30 14
38 c22 63 61 222 79 323 24 132 23 439 0 570 -37 203 -74 319 -152 475 -90
181 -140 261 -225 361 -46 54 -65 85 -66 106 -1 17 -12 43 -23 59 -14 19 -21
41 -19 60 l3 31 96 -90 96 -90 82 76 82 77 -93 91 c-181 179 -387 309 -645
408 -179 70 -402 118 -610 132 l-93 7 0 -116z m669 -164 c53 -33 118 -123 150
-207 29 -78 48 -226 30 -237 -8 -5 -76 -8 -153 -6 l-138 2 -12 35 -11 35 -90
0 -89 0 -9 -37 c-9 -37 -10 -38 -55 -38 -72 0 -76 6 -69 92 9 109 40 188 97
249 59 63 65 60 117 -46 27 -54 33 -62 28 -35 -13 68 -25 106 -39 125 -9 11
-16 23 -16 27 0 11 59 40 69 34 4 -3 13 6 20 21 11 24 15 25 68 20 36 -4 72
-16 102 -34z m187 -118 c70 -70 100 -143 119 -286 4 -36 11 -49 30 -57 29 -13
33 -37 8 -47 -34 -13 -369 -37 -538 -39 -161 -1 -173 0 -229 24 -88 37 -84 50
13 50 47 0 81 -4 81 -10 0 -6 41 -10 104 -10 59 0 108 4 111 10 3 6 51 10 109
10 57 0 130 3 163 6 l59 6 -4 57 c-7 105 -31 196 -71 274 -34 66 -37 76 -19
66 11 -6 40 -30 64 -54z m-1852 -239 c-104 -51 -163 -100 -232 -194 -64 -87
-87 -133 -113 -229 -29 -106 -23 -275 13 -374 64 -173 177 -298 345 -384 91
-46 177 -64 303 -66 84 -1 99 -3 75 -11 -51 -17 -223 -13 -290 6 -241 71 -421
247 -491 481 -25 82 -25 257 0 340 41 135 144 289 247 370 44 34 190 104 218
105 8 0 -26 -20 -75 -44z m466 -40 c36 -12 90 -38 120 -58 63 -40 157 -142
189 -206 l22 -43 -78 -95 c-205 -251 -270 -332 -298 -369 -16 -22 -35 -46 -43
-54 -8 -8 -32 -38 -54 -68 -36 -47 -43 -52 -58 -41 -75 55 -202 151 -247 186
-30 24 -58 40 -62 35 -24 -28 -71 -92 -71 -96 0 -5 282 -179 376 -232 l31 -18
39 43 c21 23 63 74 93 114 30 39 82 103 115 142 34 39 113 133 175 208 95 114
116 135 122 120 13 -34 9 -188 -6 -249 -49 -192 -204 -363 -383 -421 -80 -27
-265 -27 -342 0 -148 51 -266 154 -338 297 -94 184 -87 375 20 565 53 94 181
201 288 239 104 38 280 38 390 1z m1450 -298 l35 -14 -58 -38 c-33 -20 -76
-44 -98 -53 -62 -24 -89 -64 -89 -130 0 -90 53 -153 128 -153 16 0 81 25 145
55 63 30 118 55 122 55 8 0 -5 -68 -21 -107 -20 -50 -90 -119 -147 -144 -43
-20 -68 -24 -140 -23 l-87 1 -103 -116 c-148 -168 -139 -161 -191 -161 -75 0
-124 63 -104 136 4 17 52 81 109 145 138 156 130 142 117 220 -9 52 -9 80 1
123 20 88 101 180 187 212 47 17 145 13 194 -8z m-1005 -93 c26 -75 32 -253
11 -335 -39 -153 -138 -275 -279 -346 -36 -18 -32 -13 36 41 88 70 166 201
204 339 19 70 22 255 5 325 -13 55 0 41 23 -24z m1120 -577 c10 -17 26 -52 36
-77 24 -60 24 -21 0 47 l-18 52 27 0 c42 0 80 -50 107 -140 l13 -45 -5 45 c-3
25 -8 56 -12 70 l-7 25 35 -26 c19 -14 48 -46 65 -72 35 -51 73 -182 57 -198
-13 -13 -43 -1 -43 17 0 21 -106 20 -114 -1 -4 -12 -28 -15 -125 -15 l-121 0
-6 25 c-6 25 -9 26 -73 23 -60 -3 -66 -5 -69 -25 -3 -20 -9 -23 -49 -23 l-46
0 7 47 c7 51 44 135 74 170 26 30 149 113 166 113 8 0 29 -17 46 -37 l31 -38
-15 42 c-8 22 -12 44 -9 47 14 13 30 4 48 -26z m-1072 -310 l-47 -48 -20 20
-21 20 49 45 c47 43 50 44 68 28 18 -16 17 -18 -29 -65z m97 -8 c9 -17 4 -27
-31 -65 -23 -25 -45 -45 -50 -45 -5 0 -13 10 -20 21 -10 19 -6 27 32 65 24 24
47 44 51 44 4 0 12 -9 18 -20z m710 -40 c0 -20 5 -21 83 -18 65 2 82 6 82 18
0 12 21 16 113 18 107 3 114 1 119 -18 5 -17 13 -20 69 -20 59 0 64 2 64 21 0
19 4 21 32 15 17 -3 37 -11 45 -17 15 -13 18 -55 4 -64 -5 -3 -164 -6 -353 -7
-361 -2 -388 0 -388 42 0 33 28 50 81 50 43 0 49 -3 49 -20z m-429 -78 c24
-16 69 -56 99 -88 30 -32 143 -151 252 -263 109 -112 197 -206 194 -208 -2 -2
-21 6 -43 20 -21 13 -67 40 -103 59 -36 20 -86 47 -111 62 -25 14 -106 87
-180 162 -142 143 -169 164 -219 164 -60 0 -94 -31 -123 -110 -3 -8 -6 14 -6
50 -1 46 5 76 18 100 43 82 139 105 222 52z m-1381 -89 c0 -47 1 -48 42 -66
l42 -17 33 32 32 31 40 -44 39 -44 -30 -32 c-28 -29 -29 -33 -18 -67 11 -34
14 -36 56 -36 l44 0 0 -65 0 -65 -43 0 c-42 0 -45 -2 -59 -39 -16 -39 -15 -40
13 -67 16 -15 29 -33 29 -39 0 -6 -16 -26 -35 -45 l-34 -33 -33 24 c-32 24
-34 24 -75 10 -42 -15 -43 -17 -43 -58 l0 -43 -60 0 -60 0 0 43 c0 41 -1 43
-42 58 -42 14 -44 14 -76 -10 l-33 -24 -37 36 c-27 27 -34 41 -27 51 48 64 47
63 34 101 -12 33 -16 35 -56 35 l-43 0 0 65 0 65 43 0 c40 0 45 3 61 36 l17
37 -33 34 -32 33 42 42 42 42 33 -32 34 -33 37 17 c33 16 36 21 36 59 0 23 3
45 7 48 3 4 30 7 60 7 l53 0 0 -47z m1997 -152 c73 -5 129 -14 138 -21 19 -15
135 -169 225 -296 155 -220 235 -327 252 -337 14 -9 18 -25 18 -74 0 -53 -6
-73 -42 -143 -63 -123 -139 -173 -235 -155 -95 18 -145 58 -385 313 -42 45
-81 82 -87 82 -6 0 -54 25 -107 56 -54 31 -163 88 -242 127 -109 54 -159 85
-198 122 -86 84 -115 164 -74 205 48 48 134 15 590 -228 91 -48 308 -137 316
-129 7 7 -306 350 -418 458 -16 15 -28 30 -28 34 0 4 35 4 78 1 42 -4 132 -11
199 -15z m-1341 -229 c-12 -13 -18 -13 -31 -2 -14 11 -13 14 2 25 26 19 51 -2
29 -23z m558 -41 c20 -32 36 -62 36 -66 0 -11 -69 2 -86 16 -8 6 -14 22 -14
35 0 23 16 74 23 74 2 0 21 -27 41 -59z m-515 26 c15 -19 -11 -52 -152 -195
-64 -64 -172 -175 -240 -245 l-125 -128 84 -86 c76 -79 82 -88 68 -104 -14
-15 -17 -15 -53 3 -22 11 -62 44 -91 74 -46 49 -51 58 -48 94 3 37 22 60 268
319 146 154 268 280 271 280 4 1 12 -5 18 -12z m-90 -10 c8 -11 6 -18 -8 -31
-16 -15 -19 -15 -31 -1 -10 12 -10 18 0 30 15 19 24 19 39 2z m248 -42 c13 -9
25 -34 32 -66 14 -62 11 -66 -124 -199 -54 -52 -164 -164 -245 -247 -126 -130
-150 -150 -160 -137 -11 12 16 44 175 205 l188 190 -52 52 -52 52 -188 -194
c-121 -125 -191 -190 -195 -182 -11 17 21 56 173 211 73 74 174 179 224 232
l92 98 55 0 c33 0 64 -6 77 -15z m-298 -8 c8 -11 6 -18 -9 -32 -27 -24 -47 -8
-31 24 14 24 24 26 40 8z m-59 -91 c-7 -9 -17 -16 -22 -16 -16 0 -21 30 -7 46
11 13 14 13 27 0 13 -12 13 -18 2 -30z m-40 -31 c0 -7 -7 -18 -15 -25 -12 -10
-18 -10 -30 0 -14 12 -14 15 1 31 17 19 44 15 44 -6z m1167 -152 c101 -60 133
-97 133 -156 0 -33 -3 -37 -32 -42 -43 -8 -123 10 -173 40 -57 33 -181 165
-205 216 -11 24 -20 61 -20 81 l0 37 103 -61 c56 -33 143 -85 194 -115z m-701
122 c9 -22 -13 -51 -119 -156 -52 -52 -169 -173 -261 -269 -93 -96 -172 -177
-177 -178 -5 -2 -16 2 -24 8 -13 10 -2 26 66 99 145 154 494 509 502 510 4 1
10 -6 13 -14z m-531 -45 c-17 -18 -20 -19 -34 -6 -13 14 -13 18 4 36 17 18 20
19 34 6 13 -14 13 -18 -4 -36z m609 -15 c25 -33 27 -55 6 -55 -5 0 -25 14 -45
31 -33 29 -34 32 -18 45 25 19 28 18 57 -21z m-655 -9 c9 -11 8 -18 -5 -31
-15 -15 -18 -15 -32 -1 -13 12 -13 18 -2 30 15 20 24 20 39 2z m611 -43 c28
-31 30 -37 16 -45 -11 -6 -26 -1 -51 18 -19 14 -35 28 -35 29 0 2 3 10 6 19
10 25 29 19 64 -21z m-661 -6 c15 -19 -12 -57 -29 -41 -12 12 -5 54 9 54 5 0
14 -6 20 -13z m601 -41 c0 -5 -9 -1 -20 9 -11 10 -17 22 -14 27 6 9 33 -20 34
-36z m-650 -40 c-7 -9 -17 -16 -22 -16 -16 0 -21 30 -7 46 11 13 14 13 27 0
13 -12 13 -18 2 -30z m646 31 c7 -2 19 -9 28 -16 15 -13 15 -15 -5 -29 -19
-13 -23 -12 -50 14 -35 33 -37 49 -6 40 12 -4 27 -8 33 -9z m-16 -83 c0 -25
-21 -25 -55 2 -37 28 -42 43 -23 62 9 9 19 5 45 -20 18 -18 33 -38 33 -44z
m-674 25 c10 -17 -23 -46 -37 -32 -7 7 -9 19 -6 27 7 18 33 21 43 5z m624 -75
c0 -35 -40 -22 -73 22 -15 20 -16 28 -6 40 10 13 17 11 46 -18 18 -17 33 -38
33 -44z m-674 25 c10 -16 -23 -46 -36 -33 -6 6 -8 18 -4 27 7 19 29 22 40 6z
m619 -88 c-14 -14 -19 -12 -52 21 -31 32 -35 39 -23 53 12 14 17 12 52 -22 34
-33 36 -39 23 -52z m2274 -97 c46 -41 101 -124 83 -124 -6 0 -41 17 -78 39
l-68 38 -18 -84 c-27 -137 -122 -308 -276 -501 -45 -57 -78 -89 -85 -85 -7 4
-50 38 -97 77 -47 39 -87 71 -89 73 -2 1 19 28 45 59 158 183 293 422 368 646
4 15 18 9 87 -40 45 -31 103 -76 128 -98z m-2321 50 c-12 -12 -18 -10 -48 20
-26 28 -31 38 -21 49 9 12 17 8 48 -20 31 -30 34 -36 21 -49z m512 79 c0 -4
-15 -23 -32 -41 l-33 -35 45 26 45 26 37 -36 38 -37 -32 -33 c-32 -34 -28 -45
8 -18 36 27 38 15 4 -20 -35 -36 -64 -45 -74 -22 -3 7 -58 -43 -138 -125 -73
-75 -141 -139 -151 -142 -38 -12 -65 13 -126 115 -34 57 -60 110 -59 118 4 20
64 27 84 10 8 -6 28 -38 46 -70 17 -33 34 -59 37 -59 8 0 137 132 184 188 19
24 33 50 30 58 -10 26 7 62 39 83 35 22 48 26 48 14z m-581 -75 c35 -37 37
-46 15 -55 -17 -6 -74 42 -74 63 0 10 5 14 27 23 1 1 16 -14 32 -31z m1147 21
c58 -15 106 -68 102 -112 -3 -30 -5 -32 -43 -31 -62 1 -143 41 -176 87 -16 22
-29 46 -29 54 0 17 82 18 146 2z m-1187 -76 c29 -35 30 -39 14 -51 -15 -11
-22 -8 -52 22 -22 22 -32 40 -28 50 10 26 34 18 66 -21z m-51 -51 c29 -36 29
-39 13 -49 -15 -10 -24 -6 -51 22 -28 29 -30 35 -19 49 20 22 24 20 57 -22z
m-32 -91 c-12 -18 -31 -13 -61 19 -24 25 -26 32 -15 45 12 15 17 13 48 -18 19
-19 31 -40 28 -46z m-72 -4 c47 -62 22 -80 -32 -24 -25 26 -29 36 -20 45 18
18 25 15 52 -21z"/>
<path d="M1766 3640 c-9 -32 -41 -139 -71 -237 -30 -97 -55 -183 -55 -190 0
-7 35 -30 78 -52 l79 -39 91 223 c51 123 92 228 92 232 0 5 -26 24 -57 42 -32
19 -75 45 -95 58 -21 12 -39 23 -41 23 -3 0 -12 -27 -21 -60z"/>
<path d="M3130 3354 c-8 -22 -11 -65 -8 -106 6 -83 42 -147 105 -192 37 -26
52 -30 125 -32 l83 -2 -70 7 c-84 9 -121 27 -169 83 -56 65 -78 160 -56 237
13 47 5 51 -10 5z"/>
<path d="M3010 2988 c-19 -23 -42 -51 -50 -62 -13 -19 -13 -20 3 -7 27 22 100
111 90 111 -4 0 -24 -19 -43 -42z"/>
<path d="M3175 2964 c-11 -12 -42 -48 -69 -79 -27 -30 -47 -58 -44 -61 3 -2
38 31 77 75 39 44 68 81 64 84 -4 2 -17 -6 -28 -19z"/>
<path d="M2925 2846 c-30 -30 -23 -63 17 -85 58 -33 110 55 56 93 -31 22 -45
20 -73 -8z"/>
<path d="M1497 2102 l-56 -56 -31 29 -30 29 -22 -22 -22 -22 28 -29 29 -30
-46 -54 -46 -54 22 -21 21 -22 53 52 53 52 47 -46 48 -47 23 19 24 20 -21 25
c-11 15 -31 35 -45 46 -14 11 -26 24 -26 27 0 4 21 31 46 60 l45 52 -19 24
-19 25 -56 -57z"/>
<path d="M2783 1328 c-24 -32 -24 -41 0 -19 15 14 27 26 27 28 0 8 -19 2 -27
-9z"/>
<path d="M3984 3708 c-44 -39 -81 -72 -82 -74 -2 -1 27 -51 64 -111 155 -246
255 -544 280 -835 l7 -78 113 0 114 0 -6 88 c-17 251 -85 495 -213 768 -46 96
-168 295 -190 308 -5 3 -44 -27 -87 -66z"/>
<path d="M517 2483 c-8 -14 13 -286 29 -378 31 -175 148 -483 241 -640 20 -33
61 -93 91 -133 44 -59 56 -70 65 -59 7 7 44 42 84 76 l72 63 -65 93 c-36 52
-79 124 -95 162 -17 37 -41 91 -54 118 -36 82 -83 233 -104 340 -18 89 -41
282 -41 343 0 21 -3 22 -109 22 -61 0 -112 -3 -114 -7z"/>
<path d="M4250 2433 c-1 -143 -42 -363 -102 -540 l-41 -122 28 -38 c39 -53 75
-91 107 -114 l27 -20 36 72 c100 197 174 527 175 777 l0 42 -115 0 -115 0 0
-57z"/>
<path d="M1089 1250 l-84 -78 35 -37 c171 -179 471 -369 743 -469 184 -69 459
-126 601 -126 l56 0 0 108 0 108 -120 12 c-369 39 -728 193 -1021 439 -49 41
-97 85 -107 97 l-18 24 -85 -78z"/>
<path d="M3405 1005 c-59 -37 -248 -120 -350 -156 -115 -40 -290 -76 -411 -85
l-94 -7 0 -110 0 -110 110 6 c275 16 616 121 859 266 56 33 114 70 127 80 l24
19 -67 47 c-106 74 -142 83 -198 50z"/>
</g>
</svg>
