<?xml version="1.0" standalone="no"?>
<!DOCTYPE svg PUBLIC "-//W3C//DTD SVG 20010904//EN"
 "http://www.w3.org/TR/2001/REC-SVG-20010904/DTD/svg10.dtd">
<svg version="1.0" xmlns="http://www.w3.org/2000/svg"
 width="48.000000pt" height="48.000000pt" viewBox="0 0 500.000000 500.000000"
 preserveAspectRatio="xMidYMid meet">

<g transform="translate(0.000000,500.000000) scale(0.100000,-0.100000)"
fill="#000000" stroke="none">
<path d="M2326 4670 c-340 -31 -710 -156 -998 -338 -308 -195 -580 -485 -761
-812 -96 -174 -189 -426 -227 -616 -45 -228 -45 -609 0 -835 102 -508 375
-948 795 -1285 267 -214 691 -395 1047 -448 140 -21 486 -21 623 -1 146 22
286 58 431 110 760 274 1285 897 1430 1695 25 136 25 565 1 700 -89 493 -360
973 -731 1293 -316 273 -724 461 -1130 522 -129 19 -355 26 -480 15z m499
-523 c179 -83 226 -104 605 -277 656 -300 661 -303 683 -338 15 -26 17 -59 17
-266 l0 -237 -25 -25 c-21 -21 -26 -39 -34 -122 -15 -156 -56 -245 -164 -359
-40 -41 -96 -89 -124 -105 l-53 -30 0 -59 c0 -71 -19 -121 -54 -144 -21 -14
-26 -25 -26 -61 0 -83 -46 -144 -108 -144 -16 0 -20 -10 -25 -50 -24 -202
-219 -337 -415 -286 -107 27 -205 112 -237 205 -14 39 -31 58 -113 123 -53 43
-117 96 -142 119 -57 51 -200 162 -204 157 -2 -1 -11 -30 -21 -63 -23 -82 -76
-180 -130 -242 -44 -50 -45 -53 -45 -118 0 -84 12 -107 99 -184 69 -61 287
-188 466 -271 108 -50 172 -104 217 -179 42 -72 78 -207 81 -301 l2 -65 -207
-3 -206 -2 -4 152 c-3 137 -5 158 -26 198 -46 88 -113 136 -207 148 l-58 7
-32 89 -32 89 -93 -174 c-51 -96 -115 -214 -140 -263 l-47 -88 -56 75 c-81
107 -75 105 -128 39 -25 -31 -54 -70 -64 -85 l-18 -28 -79 143 c-44 79 -104
193 -135 253 -30 61 -58 114 -62 118 -8 8 -104 -213 -135 -309 -9 -28 -23 -59
-30 -70 -13 -17 -16 -17 -72 18 -37 22 -95 76 -156 144 -54 60 -98 111 -98
114 0 3 95 50 210 104 187 88 218 106 280 163 38 35 72 73 75 84 7 22 36 19
68 -9 35 -31 12 -143 -33 -157 -11 -3 -20 -10 -20 -14 0 -10 52 -86 97 -143
113 -140 194 -236 207 -247 18 -15 5 -30 244 262 23 29 53 71 66 94 23 41 23
42 5 48 -35 11 -49 57 -49 159 l0 95 -62 -29 c-45 -21 -86 -31 -143 -36 -158
-13 -273 32 -381 150 -78 84 -108 132 -150 244 -25 67 -38 88 -66 107 -81 55
-143 306 -104 424 21 66 20 94 -4 116 -18 16 -20 31 -20 142 l0 123 -76 88
c-42 48 -96 117 -120 153 l-43 67 57 101 c43 76 63 102 82 107 160 39 365 126
482 205 31 22 62 39 67 39 7 0 11 -39 11 -107 0 -90 3 -113 20 -141 18 -30
130 -109 221 -156 29 -15 38 -27 43 -55 4 -20 12 -43 19 -51 12 -15 122 -90
132 -90 3 0 66 -41 140 -90 125 -83 135 -93 135 -121 0 -26 -3 -30 -17 -23
-69 30 -251 85 -316 93 -193 27 -419 -1 -613 -76 -8 -3 -15 9 -20 33 -9 46 6
60 121 115 92 44 168 65 277 76 l76 8 -22 28 -23 28 -99 -15 c-141 -21 -288
-77 -381 -145 l-43 -31 0 -121 c0 -116 1 -120 20 -114 19 6 20 1 22 -97 l2
-103 3 89 4 89 34 -54 c32 -50 35 -60 35 -137 0 -167 53 -417 114 -544 45 -94
107 -157 198 -203 60 -30 81 -35 138 -35 57 0 78 5 137 35 38 19 86 51 106 70
70 68 145 221 163 332 5 33 11 42 38 51 18 7 38 22 44 35 22 42 42 200 42 334
0 146 -2 141 52 118 15 -6 18 3 20 79 l3 86 53 -35 52 -36 0 -69 0 -69 150
-103 c83 -57 200 -138 262 -180 l111 -78 206 0 c225 1 266 6 356 51 122 60
212 164 256 296 18 54 20 81 17 157 -3 50 -8 99 -13 109 -6 15 -1 17 34 17
l42 0 -3 147 -3 147 -289 -3 -290 -3 -119 -96 c-66 -54 -129 -105 -141 -114
-15 -11 -44 -17 -92 -19 l-69 -2 -209 118 c-186 104 -210 115 -223 102 -25
-25 -4 -43 147 -124 41 -22 109 -61 150 -85 l75 -45 3 -111 c2 -92 0 -113 -12
-118 -8 -3 -63 25 -128 66 -62 39 -194 123 -293 185 -99 63 -238 151 -309 197
-71 46 -150 95 -175 109 -116 66 -248 151 -267 173 -20 22 -21 40 -28 269 -5
168 -4 257 4 285 20 75 3 73 480 70 l425 -3 170 -78z m827 -950 c135 -79 189
-241 126 -379 -85 -184 -303 -233 -456 -103 -156 134 -116 401 73 492 43 21
62 24 131 20 65 -3 90 -8 126 -30z m-577 -249 c0 -121 1 -124 36 -199 42 -88
124 -174 203 -215 l51 -26 -60 7 c-117 13 -255 99 -326 202 -37 53 -36 61 4
65 l32 3 3 143 3 142 27 0 27 0 0 -122z m-951 16 c76 -13 235 -57 259 -71 10
-6 -44 -103 -85 -156 -56 -70 -134 -125 -216 -151 -152 -48 -278 -43 -421 16
-61 25 -89 45 -141 97 -38 39 -79 93 -98 131 l-33 64 38 14 c71 25 238 62 323
71 104 12 255 6 374 -15z m368 -1760 c80 -56 83 -65 86 -250 l3 -164 -40 0
-41 0 0 138 c0 118 -3 141 -20 169 -43 71 -166 67 -202 -7 -14 -28 -18 -61
-18 -167 l0 -133 -40 0 -40 0 0 150 c0 166 7 196 58 243 68 64 180 73 254 21z
m-77 -238 c13 -19 14 -29 6 -45 -6 -11 -11 -45 -11 -75 0 -56 0 -56 -30 -56
-30 0 -30 0 -30 56 0 30 -5 64 -11 75 -13 26 12 69 41 69 11 0 27 -11 35 -24z"/>
<path d="M2190 4123 c0 -3 113 -53 121 -53 4 0 45 -17 91 -38 101 -47 391
-179 433 -197 17 -7 109 -50 205 -95 96 -45 195 -90 220 -100 25 -10 108 -49
185 -87 l140 -68 210 -3 210 -2 -105 51 c-58 28 -159 74 -225 104 -66 29 -202
92 -303 139 -100 47 -185 86 -188 86 -2 0 -78 34 -167 76 -234 110 -235 110
-317 145 l-75 33 -218 5 c-119 4 -217 5 -217 4z"/>
<path d="M1930 3974 c-20 -23 0 -37 197 -138 183 -94 197 -105 179 -153 -5
-12 -11 -12 -38 5 -76 47 -303 162 -319 162 -27 0 -33 -20 -13 -40 11 -10 89
-55 174 -100 205 -109 200 -105 200 -140 0 -17 -5 -30 -11 -30 -7 0 -51 23
-99 50 -48 28 -91 50 -96 50 -5 0 -40 18 -78 40 -74 43 -94 48 -102 25 -9 -23
8 -38 88 -80 70 -36 228 -123 276 -152 16 -10 22 -23 22 -48 0 -45 32 -66 61
-39 18 16 19 33 19 259 0 261 -4 280 -51 273 -21 -3 -24 -8 -27 -55 -2 -29 -5
-53 -7 -53 -8 0 -320 162 -329 171 -15 13 -32 11 -46 -7z"/>
<path d="M2574 3215 c-10 -25 22 -53 44 -39 9 6 17 20 17 30 0 25 -52 33 -61
9z"/>
<path d="M2687 3173 c-22 -22 -1 -45 86 -98 93 -55 120 -64 133 -44 9 16 -19
40 -115 98 -88 53 -93 55 -104 44z"/>
<path d="M1352 2638 c-10 -19 -10 -42 2 -121 12 -83 39 -158 51 -145 3 3 -32
261 -38 281 -1 5 -8 -2 -15 -15z"/>
<path d="M2585 2640 c-19 -8 -19 -9 3 -9 12 -1 22 4 22 9 0 6 -1 10 -2 9 -2 0
-12 -4 -23 -9z"/>
<path d="M2727 2545 c-4 -25 -4 -53 0 -62 4 -10 56 -80 116 -155 97 -123 112
-138 139 -138 71 0 128 -68 128 -152 0 -71 -57 -138 -119 -138 -26 0 -18 -27
21 -75 62 -74 178 -96 273 -51 90 42 124 106 125 234 l0 82 60 0 60 0 0 40 0
40 -65 0 -65 0 0 40 0 40 74 0 c108 0 146 17 146 68 l0 22 -260 0 c-221 0
-266 2 -293 16 -27 14 -102 66 -297 206 l-37 27 -6 -44z m509 -295 l74 0 0
-40 0 -40 -69 0 c-52 0 -70 4 -75 15 -3 8 -27 29 -53 46 l-48 31 49 -6 c27 -3
82 -6 122 -6z m58 -166 c11 -4 16 -19 16 -48 0 -67 -18 -112 -57 -146 -33 -29
-41 -32 -85 -28 -27 3 -51 8 -55 12 -4 3 5 19 19 34 39 41 48 66 48 126 l0 56
49 0 c27 0 56 -3 65 -6z"/>
<path d="M2507 2416 l-17 -71 47 -43 c27 -24 89 -76 138 -116 50 -40 110 -92
135 -115 l45 -41 6 40 c3 22 15 53 26 68 l21 28 -62 51 c-33 28 -120 100 -191
160 l-130 109 -18 -70z"/>
<path d="M2962 2099 c-51 -19 -49 -102 3 -115 34 -8 53 0 67 31 24 52 -19 103
-70 84z"/>
<path d="M3445 3101 c-11 -5 -33 -22 -49 -37 -79 -78 -74 -193 10 -262 85 -71
204 -46 262 53 46 79 7 207 -73 241 -37 15 -118 18 -150 5z m181 -97 c9 -34
-15 -59 -49 -50 -53 13 -41 76 14 76 22 0 30 -6 35 -26z"/>
</g>
</svg>
