<?xml version="1.0" standalone="no"?>
<!DOCTYPE svg PUBLIC "-//W3C//DTD SVG 20010904//EN"
 "http://www.w3.org/TR/2001/REC-SVG-20010904/DTD/svg10.dtd">
<svg version="1.0" xmlns="http://www.w3.org/2000/svg"
 width="48.000000pt" height="48.000000pt" viewBox="0 0 500.000000 500.000000"
 preserveAspectRatio="xMidYMid meet">

<g transform="translate(0.000000,500.000000) scale(0.100000,-0.100000)"
fill="#000000" stroke="none">
<path d="M2390 4964 c-554 -48 -964 -197 -1365 -498 -501 -376 -842 -954 -947
-1607 -17 -109 -21 -179 -22 -369 0 -230 5 -292 40 -475 105 -541 406 -1058
808 -1387 446 -365 963 -563 1550 -594 277 -15 673 48 953 152 205 75 453 208
610 326 487 366 809 862 945 1453 21 93 23 126 26 502 4 448 2 469 -64 696
-146 502 -440 951 -822 1254 -374 298 -796 476 -1262 533 -93 11 -379 20 -450
14z m305 -124 c406 -29 757 -145 1100 -362 569 -361 943 -924 1069 -1609 83
-449 8 -970 -199 -1394 -121 -247 -254 -434 -445 -625 -367 -368 -807 -592
-1330 -675 -137 -22 -423 -30 -555 -16 -825 88 -1498 522 -1877 1211 -205 371
-310 852 -279 1271 53 709 389 1325 952 1744 384 286 867 448 1379 464 25 0
108 -4 185 -9z"/>
<path d="M2300 4735 c-352 -38 -715 -166 -1005 -352 -162 -104 -353 -274 -496
-440 -597 -694 -714 -1691 -293 -2514 354 -691 1057 -1142 1889 -1211 222 -18
475 7 732 73 399 102 767 319 1068 630 340 352 541 779 606 1289 20 155 15
433 -10 585 -133 803 -621 1439 -1351 1762 -353 156 -760 220 -1140 178z m499
-220 c449 -64 872 -275 1192 -594 286 -287 500 -682 577 -1066 78 -386 36
-818 -116 -1190 -263 -648 -879 -1142 -1577 -1266 -605 -108 -1279 96 -1744
527 -99 91 -245 263 -321 377 -84 126 -191 347 -240 495 -219 667 -107 1342
316 1909 73 98 255 286 354 366 284 230 649 386 1030 441 129 19 400 19 529 1z"/>
<path d="M2394 4219 c-338 -30 -689 -170 -955 -379 -95 -75 -247 -231 -320
-330 -158 -213 -258 -441 -321 -734 -18 -84 -22 -135 -22 -301 -1 -125 4 -228
12 -275 34 -188 102 -400 178 -553 34 -67 137 -237 144 -237 6 0 68 93 225
335 177 274 186 274 60 -4 -47 -103 -85 -198 -85 -212 0 -74 145 -118 220 -66
23 15 39 39 55 82 27 75 163 375 176 392 12 14 49 13 49 -2 0 -18 -233 -565
-324 -759 -25 -54 -46 -102 -46 -106 0 -11 162 -120 250 -168 145 -78 359
-157 525 -192 143 -30 375 -37 530 -16 306 41 566 144 824 328 33 23 61 48 61
55 0 7 -38 98 -85 202 -47 105 -128 293 -181 418 -53 126 -101 235 -108 243
-7 8 -23 51 -35 95 -45 159 -63 215 -70 211 -21 -13 -141 -206 -141 -227 0
-43 11 -67 34 -73 18 -4 27 -25 56 -123 18 -65 82 -273 141 -463 59 -190 105
-347 102 -350 -6 -7 -612 -7 -623 0 -5 3 -15 100 -24 215 -9 116 -23 304 -31
418 -9 114 -15 229 -13 255 l3 47 62 3 62 3 -5 52 c-3 29 -7 61 -9 72 -3 12
39 102 108 230 l113 210 -6 147 -5 147 -184 -84 c-101 -47 -193 -85 -203 -85
-37 0 -76 29 -88 65 -10 30 -9 40 7 67 15 26 47 45 170 102 l152 71 69 146
c100 210 153 261 273 261 96 0 121 -21 289 -237 81 -104 155 -203 165 -218 18
-27 18 -41 6 -260 -13 -246 -18 -267 -66 -289 -30 -14 -69 -4 -96 25 -20 21
-21 29 -17 227 l5 205 -29 38 c-17 20 -34 37 -40 37 -6 0 -8 -97 -5 -272 5
-272 5 -274 40 -413 25 -101 44 -154 68 -192 31 -48 37 -53 72 -53 l38 0 179
-271 179 -271 45 71 c212 330 322 760 288 1128 -15 160 -33 246 -83 398 -222
679 -831 1157 -1543 1215 -141 11 -140 11 -272 -1z m775 -423 c64 -34 111
-115 111 -193 -1 -121 -96 -213 -220 -213 -90 0 -165 46 -201 125 -25 53 -24
135 0 184 28 54 92 109 138 116 21 4 42 8 48 9 18 5 94 -13 124 -28z m-1120
-15 c188 -96 147 -378 -61 -416 -57 -11 -130 11 -178 53 -124 105 -100 296 45
363 54 25 144 25 194 0z m-88 -489 c41 -21 61 -40 85 -80 34 -57 37 -77 50
-324 l6 -127 144 -111 c80 -61 152 -122 160 -135 32 -49 -14 -125 -75 -125
-18 0 -67 29 -149 90 -68 50 -125 90 -129 90 -3 0 -3 -35 0 -77 4 -61 15 -104
52 -198 91 -234 107 -281 120 -355 8 -41 25 -129 39 -195 14 -65 26 -134 26
-152 0 -67 -73 -96 -124 -50 -22 18 -33 52 -71 208 -42 180 -48 193 -130 353
-48 91 -88 166 -90 166 -1 0 -21 -42 -43 -92 -75 -170 -291 -613 -311 -635
-27 -32 -84 -31 -116 2 -14 13 -25 31 -25 40 0 9 36 102 79 208 132 321 224
587 210 609 -5 7 -9 119 -9 247 l0 235 -36 -35 -36 -34 4 -210 5 -210 -28 -27
c-39 -40 -98 -33 -127 13 -8 12 -19 112 -28 250 -15 218 -15 231 2 257 23 36
248 318 288 361 69 74 166 91 257 43z m479 -1364 c0 -12 -4 -72 -10 -132 -5
-61 -22 -262 -36 -446 -17 -205 -31 -338 -38 -342 -17 -12 -614 -10 -621 2 -3
5 35 139 85 297 50 158 114 359 141 446 28 88 52 157 54 155 8 -8 75 -327 75
-357 0 -45 19 -78 55 -96 88 -41 215 11 202 82 -3 15 -23 109 -46 208 -22 99
-41 186 -41 193 0 9 25 12 90 12 86 0 90 -1 90 -22z"/>
<path d="M3703 1599 c-3 -30 -51 -78 -88 -88 -19 -5 -41 -4 -62 5 -27 10 -32
10 -37 -3 -8 -19 9 -50 34 -63 52 -28 156 2 199 56 26 34 26 54 0 88 -25 32
-44 34 -46 5z"/>
<path d="M3020 1585 c0 -9 -13 -30 -29 -46 -27 -26 -36 -29 -95 -29 -69 0
-106 19 -106 55 0 13 -3 13 -20 3 -25 -16 -34 -41 -25 -69 18 -56 187 -79 273
-38 52 25 70 58 54 93 -14 32 -52 54 -52 31z"/>
</g>
</svg>
